<svg width="82" height="82" viewBox="0 0 82 82" fill="none" xmlns="http://www.w3.org/2000/svg">
<path d="M62.0164 24.1944L60.4202 24.4845L61.7063 23.4959C61.882 23.3607 66.1202 20.186 75.4643 20.186C75.9167 20.186 76.3789 20.1994 76.842 20.2147C80.9458 9.85068 81.9996 1.69482 81.9996 1.69482C81.9996 1.69482 65.5204 3.82242 49.6434 13.8186C50.0003 24.0957 46.5293 28.766 46.3567 28.9908L45.3678 30.2773L45.6583 28.6807C46.7478 22.6913 46.6063 18.6087 46.2365 16.0991C43.3184 18.1724 40.4633 20.5292 37.7811 23.2114C37.6655 23.3269 37.5527 23.4444 37.4383 23.5612C38.1832 34.8214 34.4036 39.9067 34.2232 40.1413L33.2342 41.4278L33.5243 39.8316C34.6166 33.8258 34.4716 29.7376 34.0994 27.2303C23.0856 40.3143 18.6162 55.9602 17.0298 63.2753L0 80.3051L10.1659 76.917L20.4183 66.6646C27.8974 65.0421 44.0888 60.406 57.3441 48.8408C56.3065 48.6926 55.011 48.5841 53.4352 48.5841C50.8564 48.5841 47.9749 48.8707 44.8714 49.4351L43.2752 49.7256L44.5609 48.7366C44.7366 48.6014 48.9749 45.426 58.3189 45.426C59.1522 45.426 60.009 45.4605 60.8765 45.5124C67.5341 38.7326 72.167 30.8991 75.357 23.7447C74.2069 23.5278 72.6343 23.3434 70.5806 23.3434C68.0018 23.3438 65.1203 23.63 62.0164 24.1944ZM22.2319 63.5783L17.8242 63.8114L48.5677 34.1107L22.2319 63.5783Z" fill="#4F3921"/>
</svg>
