<svg width="82" height="82" viewBox="0 0 82 82" fill="none" xmlns="http://www.w3.org/2000/svg">
<g opacity="0.8">
<path d="M67.5861 63.2618H48.3674C47.983 64.0946 47.4705 64.9274 46.7658 65.6321C45.3244 67.0735 43.4346 67.8423 41.3846 67.8423C39.3346 67.8423 37.4447 67.0735 36.0033 65.6321L22.4861 52.1149C21.8775 51.5063 21.8775 50.6094 22.4861 50.0008C23.0947 49.3923 23.9916 49.3923 24.6002 50.0008L38.2135 63.6141C39.9752 65.3758 42.858 65.3758 44.6838 63.6141C46.4455 61.8524 46.4455 58.9696 44.6838 57.1438L27.7393 40.1993C24.9205 37.3805 21.2689 36.0352 17.6494 35.9391H0.0322266V54.1649H8.55254C10.5385 54.1649 12.4283 54.9337 13.9338 56.3751L25.7213 68.1626C28.6041 71.0454 32.64 72.4227 36.3557 72.4227H67.5861C70.0846 72.4227 72.1346 70.3727 72.1346 67.8743C72.1346 65.3758 70.0846 63.2618 67.5861 63.2618ZM77.0033 35.6188C82.7369 30.5899 83.4416 21.8133 78.3807 15.9837C73.3518 10.2501 64.5752 9.54538 58.7455 14.6063L56.7596 16.336L54.7736 14.6063C49.04 9.57741 40.1674 10.2501 35.1385 15.9837C30.0775 21.7173 30.7822 30.5899 36.5158 35.6188L56.4393 56.0548L77.0033 35.6188Z" fill="#2E1E0E"/>
</g>
</svg>
