<svg width="82" height="82" viewBox="0 0 82 82" fill="none" xmlns="http://www.w3.org/2000/svg">
<g clip-path="url(#clip0_37_7289)">
<path d="M42.4045 10.2376C42.4811 10.0186 42.0542 10.0084 41.7129 10.1171C41.9339 9.59853 42.1622 9.08169 42.4045 8.57024C42.4618 8.44827 42.3384 8.39267 42.1549 8.38813C42.1966 8.32629 42.2323 8.2619 42.2783 8.20006C42.4363 7.98419 42.2136 7.90193 41.9353 7.91214C41.9308 7.68606 41.6973 7.58451 41.4449 7.59926C41.4676 7.49204 41.4888 7.38339 41.5081 7.27475C41.5909 7.1159 41.6616 6.94712 41.7475 6.78997C41.7748 6.74004 41.7175 6.71054 41.6227 6.69749C41.6315 6.63735 41.6502 6.57693 41.6587 6.51822C41.6786 6.37723 41.5155 6.32561 41.3144 6.3361C41.5007 5.66041 41.68 4.98019 41.8468 4.29741C41.9356 3.93318 40.8582 4.10338 40.7746 4.44548C40.749 4.55129 40.719 4.65567 40.6917 4.75864C40.5471 4.71468 40.3156 4.7351 40.119 4.80261C40.1712 4.55441 40.2254 4.30166 40.2784 4.05062C40.3519 3.69207 39.8708 3.64668 39.5219 3.79787C39.5233 3.75532 39.5307 3.71277 39.5324 3.67022C39.5477 3.37493 39.1982 3.31309 38.8936 3.3911C38.9486 3.1046 39.0073 2.81554 39.0618 2.52734C39.0933 2.35572 38.8408 2.31601 38.5747 2.3614C38.5835 2.2763 38.5997 2.19404 38.6108 2.10865C38.6153 2.06468 38.6028 2.03376 38.5937 1.99689C38.6252 1.71634 38.6658 1.44034 38.6959 1.15809C38.7441 0.683806 37.6565 0.874428 37.6162 1.27837C37.6162 1.28007 37.6148 1.28291 37.6148 1.28432C37.3261 1.3107 36.959 1.4253 36.8957 1.59579C36.7511 1.52515 36.5139 1.53991 36.3074 1.61337C36.3346 1.39892 36.348 1.18589 36.3749 0.973144C36.4234 0.606082 35.775 0.641256 35.4604 0.8645C35.3611 0.899675 35.2783 0.954138 35.215 1.01002C35.0125 0.973427 34.7657 1.03044 34.6077 1.15838C34.5518 1.15696 34.4931 1.16121 34.4315 1.17313C34.4301 0.616577 33.3445 0.782521 33.3431 1.25823C33.3431 1.32574 33.3394 1.389 33.3394 1.45509C33.2316 1.47268 33.1264 1.50813 33.0331 1.55636C33.0317 1.5504 33.0317 1.54161 33.0317 1.53877C33.0061 1.37566 32.8583 1.30815 32.6808 1.30219C32.6419 0.916127 32.6073 0.531195 32.567 0.146262C32.5338 -0.165202 31.4522 0.0611626 31.4911 0.432763C31.5166 0.666219 31.5367 0.901377 31.5609 1.13767C31.4735 1.17313 31.4029 1.21539 31.3589 1.25681C31.2585 0.832162 30.2265 1.0937 30.2866 1.52544C30.1272 1.52544 29.9465 1.57253 29.7976 1.65621C29.7945 1.61649 29.7871 1.57848 29.7843 1.54019C29.7329 1.02023 28.6561 1.28915 28.7092 1.82385C28.7194 1.93108 28.7392 2.03547 28.7509 2.14127C28.6488 2.16028 28.5458 2.18382 28.4533 2.22212C28.164 1.99292 27.486 2.16765 27.4948 2.55713C27.5036 2.87455 27.534 3.18885 27.5538 3.50598C27.3686 3.56924 27.2228 3.66313 27.2253 3.77632C27.2137 3.71022 27.1981 3.64696 27.1865 3.57945C27.1402 3.32813 26.654 3.36075 26.3499 3.53095C26.2376 3.5647 26.1304 3.61775 26.051 3.68072C25.7256 3.55704 24.9773 3.87588 25.0896 4.05374C25.3563 4.47952 25.6118 4.9087 25.8615 5.34782C25.6178 5.3359 25.3452 5.4522 25.2329 5.64595C25.114 5.6624 24.992 5.69616 24.8871 5.74608C24.5243 5.63318 23.9499 5.89302 24.0704 6.28079C24.1408 6.50545 24.2313 6.72728 24.3104 6.95052C23.9813 7.00357 23.5629 7.18086 23.6055 7.29999C23.778 7.77286 23.9513 8.24743 24.1254 8.72172C23.7797 8.69959 23.336 8.93021 23.422 9.24905C24.547 13.4765 27.0963 17.0237 29.0606 20.8677L29.4697 20.6986C29.5386 20.6691 31.189 19.9923 33.6934 19.9923C35.1461 19.9923 36.6055 20.2184 38.025 20.6634L38.4539 20.7956C39.1001 19.177 39.7471 17.5599 40.4032 15.9441C41.1008 14.2257 41.5209 12.3291 42.4729 10.7372C42.5858 10.5491 42.5043 10.4359 42.348 10.3831C42.3656 10.3315 42.3863 10.283 42.4045 10.2376Z" fill="#4F3921"/>
<path d="M37.6768 39.5733C37.6998 29.4913 37.6782 21.4843 37.6782 21.4843C33.2247 20.0935 29.8837 21.4843 29.8837 21.4843C29.7903 24.6659 29.9169 31.7502 30.1305 39.8845C31.7479 39.6085 34.6084 39.2664 37.6768 39.5733Z" fill="#4F3921"/>
<path d="M30.1748 41.2508C30.6097 57.361 31.3585 77.0218 31.43 78.93C31.5211 81.4546 34.2119 81.4356 34.2119 81.4356C34.2119 81.4356 36.8582 81.5326 37.0894 78.7919C37.5169 73.7435 37.6519 55.4636 37.6879 40.9368C34.6224 40.6163 31.7074 40.9834 30.1748 41.2508Z" fill="#4F3921"/>
<path d="M56.1304 12.335L53.0325 12.3982L53.2134 21.0761H53.172C51.1935 38.8357 53.745 70.8436 54.3986 78.3922L54.4408 80.4808C54.4584 81.3255 55.1475 81.9995 55.9891 81.9995C55.9993 81.9995 56.0095 81.9995 56.02 81.9995C56.8764 81.9788 57.5563 81.2736 57.5387 80.4175L57.5299 80.0266H57.5387C60.3178 40.7028 56.7527 23.2234 56.3139 21.2656L56.1304 12.335Z" fill="#4F3921"/>
<path d="M56.0599 11.2602C56.903 8.44455 57.9767 4.63721 55.5119 4.63721C53.0869 4.63721 51.7752 6.43365 51.8002 7.94785C51.822 9.30349 52.9958 11.2602 52.9958 11.2602H56.0599Z" fill="#4F3921"/>
</g>
<defs>
<clipPath id="clip0_37_7289">
<rect width="82" height="82" fill="white"/>
</clipPath>
</defs>
</svg>
