<svg width="82" height="82" viewBox="0 0 82 82" fill="none" xmlns="http://www.w3.org/2000/svg">
<path d="M49.5413 15.3752C49.5413 20.0926 45.7171 23.9168 40.9997 23.9168C36.2823 23.9168 32.458 20.0926 32.458 15.3752C32.458 10.6577 36.2823 6.8335 40.9997 6.8335C45.7171 6.8335 49.5413 10.6577 49.5413 15.3752Z" stroke="#4F3921" stroke-width="4.1"/>
<path d="M10.25 58.0833L19.0953 53.6136C19.9562 53.1787 20.5 52.2897 20.5 51.317C20.5 41.274 27.8038 32.6829 37.6062 31.0319C39.8376 30.656 42.1624 30.656 44.3938 31.0319C54.1962 32.6829 61.5 41.274 61.5 51.317C61.5 52.2897 62.0439 53.1787 62.9046 53.6136L71.75 58.0833" stroke="#4F3921" stroke-width="4.1" stroke-linecap="round" stroke-linejoin="round"/>
<path d="M32.4587 54.6665L28.8994 59.4123C28.7908 59.5571 28.7364 59.6296 28.6817 59.6986C27.7829 60.8346 26.5463 61.6556 25.1505 62.0434C25.0655 62.067 24.9776 62.0889 24.802 62.1326L19.7289 63.4009C16.1663 64.2916 13.667 67.4927 13.667 71.1649C13.667 73.3751 15.4585 75.1665 17.6685 75.1665H22.9852C25.0327 75.1665 26.0564 75.1665 27.0501 75.0497C29.3741 74.7767 31.6173 74.0288 33.6404 72.8531C34.5056 72.3501 35.3246 71.7358 36.9625 70.5075L37.5837 70.0415M37.5837 70.0415L44.417 64.9165M37.5837 70.0415L46.261 73.2955C48.3431 74.0762 49.3845 74.4668 50.4604 74.7182C51.0173 74.8484 51.5804 74.9506 52.1472 75.024C53.2429 75.1665 54.3551 75.1665 56.579 75.1665H64.3321C66.5423 75.1665 68.3337 73.3751 68.3337 71.1649C68.3337 67.4927 65.8344 64.2916 62.2718 63.4009L57.1987 62.1326C57.0231 62.0889 56.935 62.067 56.8502 62.0434C55.4542 61.6556 54.2177 60.8346 53.3188 59.6986C53.2644 59.6296 53.2098 59.5568 53.1011 59.4123L49.542 54.6665" stroke="#4F3921" stroke-width="4.1" stroke-linecap="round" stroke-linejoin="round"/>
</svg>
