<svg width="82" height="82" viewBox="0 0 82 82" fill="none" xmlns="http://www.w3.org/2000/svg">
<path d="M25.4621 40.762C25.4249 40.5293 25.4281 40.2881 25.4756 40.0495C25.5069 39.891 25.5565 39.7389 25.6223 39.5961L28.6937 32.482C30.1621 29.0817 32.8049 24.5614 38.7799 24.5614H42.8791C48.8545 24.5614 51.4973 29.0817 52.9648 32.482L56.0554 39.64C56.4994 40.6679 56.0257 41.8611 54.9978 42.3048C53.9702 42.7488 52.777 42.2753 52.333 41.2472L49.2424 34.0892C47.5643 30.2017 45.7205 28.6161 42.8791 28.6161H38.7799C35.9384 28.6161 34.0947 30.2017 32.4161 34.0894L30.548 38.4162H34.9329C36.0526 38.4162 36.9602 39.3238 36.9602 40.4435C36.9602 41.5633 36.0526 42.4708 34.9329 42.4708H27.5176C27.4996 42.4713 27.4818 42.4715 27.4635 42.4715C27.2939 42.4715 27.1227 42.4501 26.9533 42.406C26.7806 42.3611 26.6168 42.294 26.4652 42.2077C26.1588 42.0345 25.912 41.7903 25.7372 41.5052C25.5997 41.2824 25.5047 41.031 25.4621 40.762ZM74.1745 73.3374H73.2458V56.0877C73.2458 54.968 72.3382 54.0604 71.2184 54.0604H38.2509C37.1312 54.0604 36.2236 54.968 36.2236 56.0877C36.2236 57.2075 37.1312 58.1151 38.2509 58.1151H69.1911V73.3374H68.2622C67.1424 73.3374 66.2348 74.2449 66.2348 75.3647C66.2348 76.4845 67.1424 77.392 68.2622 77.392H71.1581C71.1781 77.3927 71.1982 77.3929 71.2184 77.3929C71.2387 77.3929 71.2588 77.3927 71.2788 77.392H74.1745C75.2943 77.392 76.2019 76.4845 76.2019 75.3647C76.2019 74.2449 75.2943 73.3374 74.1745 73.3374ZM32.3758 13.0602C32.3758 8.3989 36.168 4.60645 40.8293 4.60645C45.4905 4.60645 49.283 8.3989 49.283 13.0602C49.283 17.7215 45.4905 21.5137 40.8293 21.5137C36.168 21.5137 32.3758 17.7217 32.3758 13.0602ZM36.4304 13.0602C36.4304 15.4858 38.4039 17.459 40.8293 17.459C43.2551 17.459 45.2283 15.4855 45.2283 13.0602C45.2283 10.6344 43.2548 8.6611 40.8293 8.6611C38.4037 8.6611 36.4304 10.6346 36.4304 13.0602ZM81.8203 53.3139L79.3764 47.8958C79.3059 47.7255 79.2133 47.5671 79.1016 47.4241C78.9815 47.2693 78.8412 47.1353 78.6862 47.024C78.4411 46.8476 78.1555 46.7244 77.8456 46.6717C77.7142 46.6485 77.5798 46.6388 77.4459 46.6426H26.4798C26.2453 46.6357 26.0117 46.6712 25.7833 46.7487C25.6297 46.8005 25.4846 46.8701 25.3499 46.9553C25.0535 47.142 24.8201 47.3955 24.6597 47.6849C24.5334 47.9117 24.4493 48.1654 24.4183 48.4352C24.3912 48.6661 24.4036 48.9033 24.4586 49.1358C24.5041 49.3286 24.5768 49.5111 24.673 49.6782L35.6249 69.7522L35.6289 73.0835C35.6303 74.2024 36.5376 75.1084 37.6563 75.1084C37.6569 75.1084 37.6581 75.1084 37.6587 75.1084C38.7785 75.107 39.6849 74.1983 39.6836 73.0785L39.6789 69.2696C39.6822 69.0908 39.662 68.9104 39.6165 68.7331C39.5712 68.5545 39.502 68.3853 39.4131 68.2294L29.8479 50.6971H76.1922L78.1242 54.9808C78.5846 56.0015 79.7853 56.4558 80.8057 55.9954C81.8263 55.5352 82.2804 54.3348 81.8203 53.3139ZM24.6363 56.0877C24.6363 57.2075 23.7287 58.1151 22.609 58.1151H7.01163V73.3374H7.93992C9.05968 73.3374 9.96725 74.2449 9.96725 75.3647C9.96725 76.4845 9.05968 77.392 7.93992 77.392H5.04467C5.02462 77.3927 5.00457 77.3929 4.9843 77.3929C4.96403 77.3929 4.94398 77.3927 4.92393 77.392H2.02733C0.907567 77.392 0 76.4845 0 75.3647C0 74.2449 0.907567 73.3374 2.02733 73.3374H2.95697V56.0877C2.95697 54.968 3.86454 54.0604 4.9843 54.0604H6.02837C4.81355 52.5962 4.08236 50.7167 4.08236 48.67C4.08236 44.0089 7.87459 40.2167 12.5356 40.2167C17.1969 40.2167 20.9894 44.0089 20.9894 48.67C20.9894 50.7167 20.2582 52.5962 19.0431 54.0604H22.6088C23.7287 54.0604 24.6363 54.968 24.6363 56.0877ZM16.9349 48.67C16.9349 46.2444 14.9615 44.2713 12.5359 44.2713C10.1103 44.2713 8.13724 46.2446 8.13724 48.67C8.13724 51.0958 10.1105 53.069 12.5359 53.069C14.9615 53.069 16.9349 51.0958 16.9349 48.67Z" fill="#4F3921"/>
</svg>
