<svg width="84" height="106" viewBox="0 0 84 106" fill="none" xmlns="http://www.w3.org/2000/svg">
<path d="M61.4082 15.9165C61.1147 15.7223 60.8599 15.5151 60.5923 15.3122C59.975 12.6658 58.6669 10.2397 56.6379 8.19344C51.9583 3.47497 43.864 0.776855 34.4184 0.776855C28.2796 0.776855 20.9148 4.82188 14.2192 11.8629C8.29196 18.1009 2.11435 27.8012 2.36905 36.4784C1.97621 37.9202 0.707011 43.3381 0.780399 52.598C0.827886 58.2533 7.40266 70.1854 10.7052 73.721C11.4477 77.3818 13.6234 85.1093 16.4036 88.7528L16.995 89.5385C20.0169 93.5921 28.0379 104.385 39.8492 104.385C51.6604 104.385 59.6857 93.5965 62.7033 89.5385L63.2904 88.7528C65.6993 85.6057 68.6694 78.297 69.0752 73.5052C72.9993 68.9896 75.5248 63.6322 77.5322 59.2764C78.3178 57.5798 79.0388 56.0041 79.7684 54.6615C87.0425 41.3004 81.2059 28.9841 61.4082 15.9165ZM11.0376 66.8657C8.30923 62.4105 5.12761 55.7451 5.10171 52.5592C5.03695 44.7022 5.99532 39.8672 6.40975 38.1361C9.6734 36.2021 22.4905 28.6301 25.8276 27.0716C35.8948 22.3748 43.6093 19.3572 46.9938 18.796C48.1723 18.6017 48.9666 17.4879 48.7724 16.3137C48.5781 15.1352 47.4643 14.3279 46.2901 14.5351C41.1486 15.3899 30.1187 20.3069 24.0015 23.1604C21.1221 24.503 12.1729 29.7266 7.07457 32.7312C8.18835 27.1796 11.9096 20.5616 17.349 14.8373C23.151 8.73738 29.5316 5.09385 34.4184 5.09385C42.5991 5.09385 49.761 7.38617 53.5729 11.224C55.6148 13.2789 56.6466 15.7352 56.6854 18.5197C56.6854 18.6017 56.707 18.6794 56.707 18.7614V18.7701C56.6984 19.9831 56.5473 21.1228 56.3401 22.2366C56.2969 22.4654 56.2624 22.7028 56.2105 22.9273C55.9818 23.9332 55.6666 24.8959 55.291 25.824C55.1745 26.109 55.045 26.3852 54.9155 26.6658C54.514 27.5292 54.0736 28.3711 53.5556 29.1697C53.4002 29.4114 53.2232 29.6403 53.0548 29.8777C52.5843 30.5511 52.0792 31.203 51.5352 31.8333C51.341 32.0621 51.151 32.2952 50.9481 32.5197C50.2747 33.2579 49.5494 33.9659 48.7896 34.6523C48.5695 34.8509 48.3493 35.0494 48.1248 35.2437C47.3132 35.9431 46.4757 36.6251 45.5951 37.2813C45.444 37.3936 45.2886 37.5015 45.1375 37.6137C43.1603 39.0556 41.0579 40.4025 38.9037 41.6847C38.8044 41.7408 38.7095 41.8055 38.6102 41.8616C37.4273 42.5653 36.2574 43.2301 35.1221 43.882C34.9623 43.9727 34.7983 44.0676 34.6429 44.154C34.2328 44.3871 33.8485 44.6073 33.4557 44.8361C32.4801 45.3929 31.5519 45.9326 30.818 46.3859C30.2957 46.619 17.9534 52.1793 13.5242 59.9671C12.1557 62.376 11.4304 64.7935 11.0376 66.8657ZM59.8627 86.1281L59.2368 86.9612C56.3185 90.8811 49.489 100.068 39.8492 100.068C30.2093 100.068 23.3798 90.8854 20.4616 86.9612L19.8356 86.1281C17.7462 83.3954 15.6049 76.458 14.8624 72.5166C14.8667 72.4173 14.8667 72.2835 14.8711 72.1626C14.8711 72.0849 14.8797 72.059 14.8797 71.9727C14.9099 70.2243 14.9876 66.1404 17.2843 62.104C21.0098 55.5508 32.4671 50.3877 32.8168 50.2107C34.0471 49.4682 35.3854 48.7084 36.7841 47.9098C37.777 47.3442 38.8088 46.7528 39.8535 46.1441C40.8809 46.7398 41.8868 47.3183 42.8711 47.8752C44.2827 48.6825 45.6382 49.4552 46.8858 50.2064C46.9592 50.2496 47.0326 50.2884 47.1147 50.3229L47.119 50.3273C47.2053 50.3704 53.6722 53.2844 58.4726 57.5021C60.0743 58.9094 61.4859 60.4592 62.4184 62.0997C62.9925 63.1056 63.4286 64.12 63.7566 65.0957C64.4171 67.0513 64.6589 68.8687 64.7582 70.2502C64.8057 70.9409 64.8186 71.5237 64.8273 71.9597C64.8359 72.3525 64.8445 72.6461 64.8532 72.6547C64.8532 75.8364 62.1507 83.1407 59.8627 86.1281ZM75.9824 52.6023C75.2139 54.0183 74.4455 55.676 73.6167 57.4719C72.2136 60.5067 70.6854 63.8179 68.678 66.9218C68.6219 66.6196 68.5399 66.2915 68.4665 65.9763C68.419 65.7735 68.3845 65.5835 68.3326 65.3763C68.2247 64.9619 68.0909 64.5302 67.9528 64.0985C67.9053 63.9431 67.8664 63.7963 67.8146 63.6365C67.4088 62.4407 66.8735 61.1974 66.1698 59.9585C65.6518 59.0476 65.0129 58.1669 64.3092 57.3208C64.2876 57.2949 64.2704 57.2647 64.2445 57.2388C63.5494 56.4099 62.7767 55.6199 61.9651 54.8687C61.9219 54.8299 61.8831 54.7867 61.8399 54.7479C61.0283 54.001 60.1779 53.2974 59.3102 52.6325C59.267 52.598 59.2238 52.5635 59.1806 52.5332C58.3 51.8641 57.4193 51.2425 56.5516 50.6683L56.4825 50.6208C55.5932 50.0337 54.7385 49.507 53.9355 49.0365L53.9182 49.0279C53.111 48.5573 52.3727 48.1472 51.7209 47.8018C51.682 47.7802 51.6518 47.763 51.6173 47.7457C51.0647 47.4522 50.5855 47.2104 50.197 47.0205C49.6401 46.7442 49.1954 46.5326 48.9969 46.442C47.7536 45.6951 46.4067 44.9267 45.0036 44.1281C44.6971 43.9511 44.369 43.7568 44.0582 43.5798C44.0712 43.5712 44.0841 43.5625 44.0971 43.5539C46.0872 42.2761 48.0601 40.886 49.9293 39.3578C49.9898 39.306 50.0502 39.2585 50.1106 39.211C51.8936 37.7389 53.5599 36.133 55.0406 34.376C55.1529 34.2422 55.2694 34.104 55.3774 33.9659C56.7631 32.2563 57.9589 30.4044 58.8871 28.3797C58.995 28.1466 59.09 27.9091 59.1893 27.676C59.5519 26.8126 59.867 25.919 60.1261 24.9952C60.1779 24.8182 60.2426 24.6455 60.2858 24.4642C60.5578 23.3936 60.7477 22.2711 60.8643 21.1099C60.8729 21.0063 60.9074 20.9156 60.9161 20.8077C81.7153 35.1746 79.941 45.3196 75.9824 52.6023Z" fill="#4F3921" stroke="#4F3921" stroke-width="1.55412"/>
</svg>
