<svg width="82" height="82" viewBox="0 0 82 82" fill="none" xmlns="http://www.w3.org/2000/svg">
<path d="M39.6891 45.5161C41.0405 45.3731 42.0196 44.1621 41.8769 42.8111C41.7339 41.4597 40.5226 40.4806 39.1716 40.6233L39.6891 45.5161ZM11.3245 17.5285L13.7834 17.6004C13.7839 17.5819 13.7843 17.5634 13.7844 17.5449L11.3245 17.5285ZM13.7812 15.0882L13.7811 17.5483L13.8084 17.548L13.7812 15.0882ZM28.0149 21.7103C29.1505 22.4561 30.6757 22.1401 31.4215 21.0045C32.1673 19.8689 31.8513 18.3437 30.7157 17.5979L28.0149 21.7103ZM13.7812 12.6282C12.4829 12.6282 11.2372 13.1417 10.3161 14.0566L13.7844 17.5449L13.7811 17.5483L13.7812 12.6282ZM10.3161 14.0566C9.39499 14.9716 8.87318 16.2138 8.86452 17.5121L13.7844 17.5449L10.3161 14.0566ZM8.8655 17.4566C8.36904 34.4367 23.3686 47.2433 39.6891 45.5161L39.1716 40.6233C25.6301 42.0563 13.3793 31.4201 13.7834 17.6004L8.8655 17.4566ZM30.7157 17.5979C25.6857 14.2945 19.7809 12.5615 13.7539 12.6283L13.8084 17.548C18.8564 17.4921 23.802 18.9435 28.0149 21.7103L30.7157 17.5979Z" fill="#4F3921"/>
<path d="M47.6262 17.9115C46.5028 18.6756 46.2115 20.2057 46.9757 21.3291C47.7397 22.4525 49.2698 22.7438 50.3932 21.9797L47.6262 17.9115ZM64.9505 15.0879L64.9367 17.5479H64.9472L64.9505 15.0879ZM67.4006 17.5282L64.9406 17.5414C64.941 17.5603 64.9413 17.5793 64.9416 17.5983L67.4006 17.5282ZM60.3027 36.1029L61.9772 37.9053C62.0155 37.8695 62.0526 37.8328 62.0883 37.795L60.3027 36.1029ZM40.0579 40.6496C38.7046 40.5276 37.509 41.5261 37.387 42.8791C37.2653 44.2324 38.2634 45.4279 39.6167 45.5496L40.0579 40.6496ZM50.3932 21.9797C54.6805 19.0638 59.752 17.5184 64.9367 17.5479L64.9646 12.6279C58.7834 12.5927 52.7374 14.4352 47.6262 17.9115L50.3932 21.9797ZM64.9472 17.5479C64.9456 17.5479 64.9439 17.5472 64.9426 17.546L68.4148 14.0601C67.4954 13.1444 66.2513 12.6296 64.9538 12.6279L64.9472 17.5479ZM64.9426 17.546C64.9416 17.5448 64.9406 17.5431 64.9406 17.5414L69.8606 17.5151C69.8537 16.2176 69.3339 14.9756 68.4148 14.0601L64.9426 17.546ZM64.9416 17.5983C65.0295 20.6855 64.5073 23.7598 63.4049 26.6448L68.0009 28.401C69.3345 24.9112 69.9659 21.1926 69.8597 17.4582L64.9416 17.5983ZM63.4049 26.6448C62.3025 29.5298 60.6415 32.1689 58.5171 34.4108L62.0883 37.795C64.6582 35.0831 66.6672 31.8908 68.0009 28.401L63.4049 26.6448ZM58.6283 34.3006C56.1053 36.6448 53.1093 38.4209 49.8421 39.5098L51.3975 44.1776C55.3319 42.8663 58.9392 40.7277 61.9772 37.9053L58.6283 34.3006ZM49.8421 39.5098C46.6927 40.5598 43.3615 40.9471 40.0579 40.6496L39.6167 45.5496C43.5947 45.9078 47.6055 45.4414 51.3975 44.1776L49.8421 39.5098Z" fill="#4F3921"/>
<path d="M66.4245 49.7528C66.4468 48.3942 65.3638 47.2751 64.0052 47.2528C62.6469 47.2305 61.5275 48.3139 61.5052 49.6721L66.4245 49.7528ZM17.2263 49.6724C17.2042 48.3139 16.085 47.2308 14.7266 47.2528C13.3681 47.2751 12.2848 48.3942 12.307 49.7525L17.2263 49.6724ZM61.5052 49.6721C61.4733 51.6309 59.7864 54.0598 55.5995 56.137C51.5589 58.1417 45.8264 59.4498 39.3658 59.4498V64.3698C46.4224 64.3698 52.9342 62.9518 57.7863 60.5443C62.4921 58.2096 66.3465 54.5396 66.4245 49.7528L61.5052 49.6721ZM39.3658 59.4498C32.9042 59.4498 27.1715 58.1447 23.1313 56.1416C18.9461 54.0667 17.2584 51.6381 17.2263 49.6724L12.307 49.7525C12.3851 54.5455 16.2383 58.2155 20.9458 60.5496C25.7983 62.9555 32.3099 64.3698 39.3658 64.3698V59.4498Z" fill="#4F3921"/>
<path d="M76.26 49.6004H78.72V49.5765L76.26 49.6004ZM2.46 49.6102L0 49.5873V49.6102H2.46ZM7.56663 41.1501C8.32871 40.0254 8.03472 38.4956 6.90994 37.7337C5.7852 36.9717 4.2556 37.2656 3.49353 38.3903L7.56663 41.1501ZM75.277 38.4651C74.52 37.3371 72.9915 37.0367 71.8635 37.7937C70.7355 38.5511 70.4347 40.0792 71.1921 41.2072L75.277 38.4651ZM73.8 49.6004C73.8 55.3148 70.3255 60.7895 64.0873 64.9482C57.8667 69.0954 49.1314 71.7404 39.36 71.7404V76.6604C49.9672 76.6604 59.6819 73.7983 66.8165 69.0419C73.9338 64.2971 78.72 57.4717 78.72 49.6004H73.8ZM39.36 71.7404C29.5882 71.7404 20.8527 69.0977 14.632 64.9528C8.39434 60.7967 4.92 55.3243 4.92 49.6102H0C0 57.4819 4.78634 64.3046 11.904 69.0472C19.0387 73.8009 28.7532 76.6604 39.36 76.6604V71.7404ZM4.9199 49.6332C4.94821 46.6067 5.8689 43.6557 7.56663 41.1501L3.49353 38.3903C1.25268 41.6976 0.0373692 45.5926 0 49.5873L4.9199 49.6332ZM71.1921 41.2072C72.8639 43.698 73.7708 46.6238 73.8 49.6243L78.72 49.5765C78.681 45.6152 77.4838 41.753 75.277 38.4651L71.1921 41.2072Z" fill="#4F3921"/>
<path d="M39.4299 43.0699L37.8828 44.9825C38.7851 45.7123 40.0748 45.7123 40.9771 44.9825L39.4299 43.0699ZM29.5899 23.3898L27.1308 23.3228C27.1294 23.3753 27.1296 23.4277 27.1315 23.4801L29.5899 23.3898ZM37.744 5.19894L39.4303 6.99008C39.4424 6.97877 39.4542 6.96732 39.466 6.95574L37.744 5.19894ZM41.1191 5.19894L39.3971 6.95574C39.4086 6.96709 39.4185 6.97896 39.4303 6.99008L41.1191 5.19894ZM49.2699 23.3898L51.7283 23.4801C51.7303 23.4276 51.7303 23.3751 51.729 23.3226L49.2699 23.3898ZM39.466 6.95574C39.4568 6.96476 39.4444 6.96981 39.4316 6.96981V2.0498C38.1566 2.0498 36.9325 2.5497 36.022 3.44216L39.466 6.95574ZM39.4316 6.96981C39.4188 6.96981 39.4063 6.96476 39.3971 6.95574L42.8411 3.44216C41.9306 2.5497 40.7065 2.0498 39.4316 2.0498V6.96981ZM32.049 23.4568C32.2175 17.2717 34.9252 11.2313 39.4303 6.99008L36.0578 3.4078C30.5989 8.5469 27.335 15.8284 27.1308 23.3228L32.049 23.4568ZM40.9771 41.1573C35.6058 36.812 32.3018 30.2039 32.0482 23.2996L27.1315 23.4801C27.4373 31.8055 31.4058 39.7427 37.8828 44.9825L40.9771 41.1573ZM46.8116 23.2996C46.558 30.2039 43.2541 36.812 37.8828 41.1573L40.9771 44.9825C47.4538 39.7427 51.4226 31.8055 51.7283 23.4801L46.8116 23.2996ZM39.4303 6.99008C43.9334 11.2329 46.6417 17.2722 46.8109 23.4571L51.729 23.3226C51.5243 15.8293 48.262 8.5489 42.806 3.40846L39.4303 6.99008Z" fill="#4F3921"/>
</svg>
