<svg width="82" height="82" viewBox="0 0 82 82" fill="none" xmlns="http://www.w3.org/2000/svg">
<g clip-path="url(#clip0_37_7316)">
<path d="M78.5835 61.4997H68.3335V51.2497C68.3335 50.3436 67.9735 49.4745 67.3327 48.8338C66.692 48.193 65.8229 47.8331 64.9168 47.8331C64.0106 47.8331 63.1416 48.193 62.5008 48.8338C61.8601 49.4745 61.5001 50.3436 61.5001 51.2497V61.4997H51.2501C50.344 61.4997 49.4749 61.8597 48.8342 62.5005C48.1934 63.1412 47.8335 64.0103 47.8335 64.9164C47.8335 65.8226 48.1934 66.6916 48.8342 67.3324C49.4749 67.9731 50.344 68.3331 51.2501 68.3331H61.5001V78.5831C61.5001 79.4892 61.8601 80.3583 62.5008 80.999C63.1416 81.6398 64.0106 81.9997 64.9168 81.9997C65.8229 81.9997 66.692 81.6398 67.3327 80.999C67.9735 80.3583 68.3335 79.4892 68.3335 78.5831V68.3331H78.5835C79.4896 68.3331 80.3587 67.9731 80.9994 67.3324C81.6402 66.6916 82.0001 65.8226 82.0001 64.9164C82.0001 64.0103 81.6402 63.1412 80.9994 62.5005C80.3587 61.8597 79.4896 61.4997 78.5835 61.4997ZM37.5835 23.9164V39.5852L28.3345 48.8342C28.0082 49.1493 27.7479 49.5263 27.5689 49.9432C27.3898 50.36 27.2955 50.8084 27.2916 51.262C27.2877 51.7157 27.3741 52.1656 27.5459 52.5855C27.7177 53.0054 27.9714 53.3869 28.2922 53.7077C28.613 54.0285 28.9945 54.2822 29.4144 54.454C29.8343 54.6258 30.2842 54.7122 30.7378 54.7083C31.1915 54.7043 31.6398 54.6101 32.0567 54.431C32.4735 54.2519 32.8505 53.9916 33.1657 53.6653L43.4157 43.4153C44.0565 42.7747 44.4166 41.9058 44.4168 40.9997V23.9164C44.4168 23.0103 44.0568 22.1412 43.4161 21.5005C42.7753 20.8597 41.9063 20.4997 41.0001 20.4997C40.094 20.4997 39.2249 20.8597 38.5842 21.5005C37.9434 22.1412 37.5835 23.0103 37.5835 23.9164ZM50.3208 73.8817C43.0551 75.9295 35.3154 75.5096 28.3139 72.6879C21.3124 69.8661 15.4444 64.8019 11.6291 58.2883C7.81379 51.7747 6.26655 44.1796 7.22973 36.6926C8.19291 29.2056 11.6121 22.2494 16.9518 16.9136C22.2915 11.5777 29.2501 8.16358 36.7379 7.20583C44.2256 6.24808 51.8196 7.80081 58.3304 11.6209C64.8412 15.4409 69.9012 21.3125 72.7179 28.3161C75.5345 35.3196 75.9488 43.0596 73.8958 50.3238C73.7569 50.7605 73.7072 51.2208 73.7498 51.6771C73.7924 52.1334 73.9263 52.5764 74.1437 52.9799C74.361 53.3834 74.6573 53.739 75.0149 54.0256C75.3725 54.3122 75.7841 54.524 76.2253 54.6482C76.6664 54.7725 77.128 54.8067 77.5826 54.7489C78.0372 54.6911 78.4756 54.5425 78.8716 54.3118C79.2676 54.0811 79.6131 53.7731 79.8876 53.4061C80.1621 53.0391 80.36 52.6207 80.4695 52.1757C82.9343 43.4521 82.4358 34.1574 79.0521 25.7476C75.6684 17.3377 69.5906 10.2879 61.7708 5.70239C53.9511 1.11692 44.8311 -0.745107 35.8397 0.408018C26.8483 1.56114 18.4934 5.66427 12.0838 12.0746C5.67424 18.485 1.57212 26.8404 0.420084 35.8319C-0.731955 44.8235 1.13117 53.9432 5.71759 61.7624C10.304 69.5816 17.3546 75.6585 25.7649 79.0413C34.1751 82.424 43.4699 82.9213 52.1931 80.4554C52.6343 80.342 53.0484 80.1415 53.411 79.8656C53.7736 79.5898 54.0773 79.2443 54.3044 78.8494C54.5315 78.4544 54.6773 78.0181 54.7332 77.566C54.7892 77.1139 54.7541 76.6551 54.6302 76.2167C54.5062 75.7784 54.2959 75.3692 54.0115 75.0133C53.7271 74.6574 53.3744 74.362 52.9741 74.1445C52.5739 73.9269 52.1341 73.7916 51.6808 73.7465C51.2275 73.7014 50.7697 73.7473 50.3345 73.8817H50.3208Z" fill="#4F3921"/>
</g>
<defs>
<clipPath id="clip0_37_7316">
<rect width="82" height="82" fill="white"/>
</clipPath>
</defs>
</svg>
