<svg width="83" height="83" viewBox="0 0 83 83" fill="none" xmlns="http://www.w3.org/2000/svg">
<g clip-path="url(#clip0_32_6305)">
<path d="M11.8337 26.4237C12.2688 26.7511 12.2688 26.7511 12.6443 27.2343C12.6915 27.7099 12.6985 28.0928 12.6646 28.5615C12.5874 30.882 13.4301 32.6356 14.9543 34.3975C15.7402 35.2298 16.607 35.9333 17.5076 36.6366C17.7274 36.8116 17.7274 36.8116 17.9517 36.9902C19.3431 38.0836 20.7952 39.0688 22.2723 40.0424C22.8352 40.4135 23.3968 40.7864 23.9585 41.1592C24.2365 41.3438 24.5146 41.5282 24.7927 41.7126C29.1771 44.6197 33.4798 47.5741 37.2849 51.2264C37.3726 51.3097 37.4603 51.393 37.5507 51.4789C41.354 55.1048 41.354 55.1048 41.5542 56.4576C41.5563 56.5937 41.5584 56.7297 41.5605 56.8699C41.5651 57.0047 41.5697 57.1395 41.5745 57.2783C41.4715 57.8743 41.279 58.2656 40.8513 58.6835C40.1019 59.1745 39.2988 59.5679 38.502 59.9753C37.2641 60.6357 36.5441 61.2999 35.9171 62.5538C35.721 63.6436 35.8718 64.7189 36.4205 65.6865C38.2358 68.1406 42.5882 68.9649 45.3379 69.7954C50.3908 71.3219 54.6862 73.2022 59.1064 76.1188C62.2507 78.1842 66.5575 80.8058 70.5173 80.244C71.3194 79.9767 71.8696 79.5125 72.3005 78.785C72.4662 78.3447 72.5465 77.9575 72.6248 77.4882C72.4959 77.1455 72.4959 77.1455 72.1974 77.0432C72.0826 77.0055 71.9678 76.9679 71.8495 76.9291C71.7196 76.8858 71.5897 76.8425 71.4559 76.7978C71.3144 76.7519 71.1729 76.706 71.0271 76.6586C70.7291 76.5592 70.4312 76.4598 70.1333 76.3604C69.6624 76.2049 69.1914 76.0499 68.7203 75.8952C68.2663 75.7456 67.8128 75.5943 67.3594 75.4428C67.2195 75.3975 67.0797 75.3522 66.9356 75.3056C65.9276 74.9682 65.0087 74.5881 64.3914 73.6767C64.2795 73.5146 64.2795 73.5146 64.1653 73.3493C64.0882 73.234 64.0111 73.1186 63.9316 72.9998C63.7607 72.7509 63.5897 72.502 63.4187 72.2532C63.3324 72.1263 63.246 71.9993 63.157 71.8686C62.7533 71.2783 62.3392 70.6955 61.9255 70.1122C61.7634 69.8826 61.6013 69.6529 61.4392 69.4232C61.359 69.3096 61.2787 69.1959 61.196 69.0787C60.4666 68.0453 60.4666 68.0453 60.2231 67.7004C60.0619 67.4721 59.9007 67.2437 59.7396 67.0154C59.3201 66.4212 58.9006 65.8268 58.4813 65.2324C58.3947 65.1097 58.3081 64.9869 58.2189 64.8604C58.0546 64.6276 57.8904 64.3948 57.7262 64.162C57.6511 64.0555 57.576 63.949 57.4986 63.8393C57.4264 63.7365 57.3542 63.6337 57.2799 63.5278C57.1321 63.3206 56.9817 63.1153 56.8288 62.9119C56.4535 62.4086 56.2567 62.1243 56.1707 61.49C56.2572 60.9168 56.2947 60.6764 56.738 60.3046C57.3266 60.1411 57.6958 60.0653 58.2635 60.3128C58.8159 60.7286 59.1305 61.2084 59.504 61.7838C59.6617 62.0199 59.8196 62.2559 59.9777 62.4918C60.0988 62.6738 60.0988 62.6738 60.2224 62.8595C60.6082 63.4332 61.0083 63.9965 61.4088 64.5599C62.2208 65.7063 63.0276 66.8562 63.8319 68.0081C64.3024 68.6813 64.7748 69.3531 65.2519 70.0216C65.3419 70.148 65.4319 70.2743 65.5246 70.4044C65.6946 70.6429 65.8651 70.881 66.0362 71.1187C66.3528 71.5632 66.6152 71.9419 66.7888 72.4628C67.1094 72.5385 67.4308 72.6111 67.7543 72.6733C68.7458 72.9018 69.7004 73.2609 70.6593 73.5981C71.0342 73.7293 71.41 73.8574 71.786 73.9854C72.0275 74.0697 72.2688 74.1543 72.5101 74.239C72.6211 74.2764 72.7321 74.3137 72.8464 74.3522C73.7795 74.6866 74.4692 75.1439 75.026 75.9887C75.5667 77.4686 75.3398 78.636 74.7322 80.0819C74.4558 80.5696 74.145 80.9729 73.7595 81.3788C73.6745 81.4684 73.5894 81.5581 73.5018 81.6505C72.3657 82.7277 71.0778 83.1071 69.5246 83.0997C67.1304 82.9914 64.5874 82.2002 62.4119 81.2167C62.2635 81.1513 62.1151 81.0859 61.9623 81.0185C60.5003 80.3315 59.1622 79.4366 57.8051 78.5667C56.541 77.7576 55.2679 76.9655 53.9822 76.1913C53.8647 76.119 53.7472 76.0467 53.6262 75.9723C50.4129 74.019 46.619 73.08 43.0398 72.017C35.5299 69.785 35.5299 69.785 33.754 66.5686C32.9878 64.9085 32.8058 63.1818 33.3943 61.4393C34.3289 59.1845 36.1398 57.9449 38.2576 56.9003C38.3646 56.9003 38.4716 56.9003 38.5818 56.9003C37.7525 55.7347 36.8081 54.6941 35.8259 53.6581C35.7016 53.5269 35.5773 53.3956 35.4492 53.2604C34.6935 52.4844 33.8937 51.7899 33.0479 51.1137C32.5811 50.738 32.127 50.3497 31.6719 49.96C30.4646 48.9524 29.1769 48.0648 27.8826 47.1737C27.6917 47.0418 27.5009 46.9098 27.3101 46.7779C25.7557 45.7043 24.1882 44.6516 22.614 43.6073C21.2533 42.7047 19.895 41.7991 18.548 40.8761C18.4444 40.8054 18.3408 40.7346 18.234 40.6617C15.7995 38.9871 13.4151 37.0988 11.6716 34.6913C11.5983 34.5906 11.5249 34.4898 11.4494 34.3861C11.0232 33.7756 11.0232 33.7756 11.0232 33.3944C10.8269 33.4615 10.6307 33.5285 10.4285 33.5976C9.69799 33.8472 8.96747 34.0967 8.23694 34.3463C7.92121 34.4541 7.60549 34.562 7.28977 34.6698C6.83506 34.8252 6.38034 34.9805 5.92561 35.1358C5.78525 35.1838 5.64489 35.2318 5.50027 35.2812C5.24005 35.37 4.97976 35.4587 4.7194 35.5471C4.42239 35.6484 4.12597 35.7513 3.82967 35.8546C3.27033 36.0301 2.85199 36.0623 2.26929 35.9882C1.72116 35.5917 1.49613 35.3571 1.35742 34.6913C1.48804 34.0643 1.7614 33.7575 2.26929 33.3944C2.82047 33.1414 3.3896 32.9629 3.96827 32.7833C4.13187 32.7305 4.29547 32.6777 4.46403 32.6233C4.98471 32.4558 5.50642 32.2919 6.0282 32.1279C6.38109 32.0147 6.73391 31.9012 7.08666 31.7876C7.73 31.5815 8.37336 31.3756 9.01784 31.1731C9.14715 31.1324 9.27646 31.0916 9.40969 31.0496C9.72632 30.9628 9.72632 30.9628 10.0505 30.9628C10.0244 30.8786 9.99829 30.7943 9.97138 30.7076C9.71961 29.5141 9.71182 28.0369 10.2126 26.91C10.6959 26.375 11.1316 26.3091 11.8337 26.4237Z" fill="#4F3921"/>
<path d="M21.1144 7.79139C22.2861 8.90188 23.1424 10.2517 24.0385 11.5856C24.4529 12.1984 24.8806 12.8014 25.309 13.4044C25.4682 13.6296 25.6274 13.8548 25.7865 14.0801C25.8647 14.1907 25.9429 14.3013 26.0235 14.4153C26.4273 14.9866 26.8307 15.5583 27.2341 16.1299C27.3962 16.3595 27.5583 16.5892 27.7204 16.8189C33.8806 25.5457 40.0407 34.2726 46.2009 42.9995C46.2811 43.1132 46.3613 43.2268 46.444 43.3439C46.6063 43.5739 46.7687 43.804 46.9311 44.034C47.3321 44.6023 47.7333 45.1704 48.1348 45.7383C49.1032 47.1085 50.0675 48.4814 51.0288 49.8566C51.5624 50.6195 52.0976 51.3811 52.6357 52.1407C52.8739 52.4775 53.1108 52.8152 53.3476 53.1529C53.6732 53.6162 54.006 54.0733 54.3431 54.5283C54.5098 54.7583 54.6766 54.9884 54.8433 55.2185C54.9617 55.3739 54.9617 55.3739 55.0825 55.5324C55.4806 56.0888 55.605 56.323 55.5912 57.0308C55.4411 57.5488 55.4411 57.5488 55.0966 57.9541C54.6306 58.1973 54.6306 58.1973 54.0834 58.2479C53.453 58.0197 53.3439 57.9045 52.9594 57.3886C52.8608 57.2568 52.7621 57.125 52.6604 56.9892C52.192 56.343 51.7312 55.6923 51.2769 55.0361C51.0775 54.7497 50.878 54.4632 50.6785 54.1768C50.5798 54.035 50.4812 53.8932 50.3795 53.7471C49.955 53.1382 49.5271 52.5318 49.0986 51.9257C49.0198 51.8141 48.941 51.7025 48.8598 51.5876C48.4587 51.0199 48.0572 50.4525 47.6554 49.8854C46.5629 48.3421 45.4849 46.7894 44.4177 45.2285C44.3115 45.3029 44.2054 45.3773 44.096 45.454C42.0484 46.8306 40.0691 47.3344 37.6268 46.9351C35.2367 46.3075 33.8228 44.6513 32.4925 42.6854C32.2635 42.3517 32.0345 42.018 31.8054 41.6843C31.6914 41.5174 31.5774 41.3505 31.4599 41.1786C30.9615 40.4513 30.4558 39.7293 29.9494 39.0076C29.8563 38.8746 29.7632 38.7417 29.6673 38.6047C28.9957 37.6462 28.3211 36.6898 27.6455 35.7341C26.9232 34.7119 26.2051 33.6868 25.489 32.6602C25.0239 31.994 24.5561 31.3302 24.0812 30.671C23.9927 30.5476 23.9042 30.4242 23.813 30.297C23.6476 30.0667 23.4813 29.837 23.314 29.6081C22.3589 28.2752 21.9877 27.1135 22.2087 25.4512C22.6981 23.6673 24.6535 22.6845 26.0993 21.7227C26.2009 21.6547 26.3024 21.5867 26.4071 21.5167C26.6284 21.3688 26.8501 21.2214 27.072 21.0742C26.8668 20.5172 26.6314 20.0557 26.288 19.5722C26.1967 19.4427 26.1053 19.3132 26.0112 19.1798C25.9132 19.0426 25.8152 18.9055 25.7143 18.7642C25.6128 18.6206 25.5112 18.4771 25.4066 18.3292C25.1979 18.0343 24.9888 17.7395 24.7793 17.445C24.4256 16.9474 24.0738 16.4484 23.7222 15.9493C23.4855 15.6134 23.2483 15.278 23.011 14.9426C22.6793 14.4735 22.3489 14.0035 22.0193 13.533C21.6135 12.9538 21.2052 12.3764 20.7945 11.8007C20.6165 11.5504 20.4404 11.2988 20.2646 11.0469C19.3328 9.7651 18.1013 8.90493 16.5349 8.5918C14.9862 8.49587 13.4656 8.67652 11.9325 8.87549C11.6991 8.90471 11.4657 8.93378 11.2324 8.96272C10.6241 9.03841 10.016 9.11546 9.40802 9.19299C8.43309 9.31726 7.45802 9.44027 6.48273 9.56163C6.14529 9.60395 5.80801 9.64741 5.47072 9.69095C2.51738 10.0609 2.51738 10.0609 1.77277 9.5442C1.40375 8.99661 1.34858 8.75233 1.45868 8.10547C1.69099 7.71745 1.83588 7.49937 2.26248 7.33388C2.38557 7.31415 2.50866 7.29443 2.63548 7.27411C2.78007 7.25024 2.92466 7.22637 3.07363 7.20177C3.31741 7.16764 3.31741 7.16764 3.5661 7.13282C3.74448 7.10748 3.92285 7.08214 4.10662 7.05603C4.72844 6.97192 5.35086 6.89373 5.97368 6.81747C6.20503 6.78886 6.43638 6.76025 6.66773 6.73163C7.1508 6.67205 7.63394 6.61301 8.11712 6.55427C8.7287 6.47983 9.34001 6.40338 9.95127 6.32642C10.4288 6.26665 10.9065 6.20833 11.3842 6.15037C11.6093 6.12283 11.8343 6.0948 12.0592 6.06621C15.347 5.64984 18.4322 5.56403 21.1144 7.79139ZM27.975 23.6553C27.8327 23.7548 27.6903 23.8542 27.5437 23.9567C27.3947 24.0621 27.2457 24.1674 27.0922 24.2759C26.9445 24.3787 26.7967 24.4815 26.6445 24.5874C25.4107 25.3558 25.4107 25.3558 24.6998 26.534C24.8551 27.3486 25.3069 27.8938 25.7954 28.5515C26.0048 28.8417 26.2142 29.1319 26.4235 29.4222C26.5314 29.5701 26.6392 29.7181 26.7503 29.8705C27.2517 30.5626 27.7389 31.2644 28.227 31.9659C28.9986 33.0694 29.7738 34.1702 30.5511 35.2697C31.1772 36.1558 31.7997 37.0444 32.4216 37.9336C32.6126 38.2063 32.8036 38.479 32.9947 38.7517C33.3618 39.2761 33.7277 39.8013 34.0927 40.3272C35.767 42.9807 35.767 42.9807 38.4196 44.418C40.1656 44.6257 41.3635 44.0765 42.7966 43.1211C42.536 42.3303 42.0839 41.7211 41.601 41.0542C41.4241 40.8068 41.2472 40.5594 41.0704 40.312C40.9799 40.1861 40.8895 40.0602 40.7963 39.9305C40.3791 39.3482 39.9669 38.7624 39.5544 38.1768C39.3923 37.9471 39.2302 37.7174 39.0681 37.4878C36.6364 34.043 36.6364 34.043 34.2048 30.5982C34.1245 30.4845 34.0443 30.3708 33.9616 30.2536C33.7996 30.0241 33.6376 29.7946 33.4756 29.5651C33.0688 28.9886 32.6617 28.4123 32.2538 27.8366C32.0902 27.6055 31.9266 27.3743 31.763 27.1432C31.6835 27.0311 31.604 26.919 31.5221 26.8035C31.1061 26.215 30.6959 25.6233 30.2933 25.0256C30.2117 24.905 30.1301 24.7843 30.046 24.66C29.89 24.4285 29.7349 24.1964 29.5808 23.9637C29.4011 23.6973 29.2102 23.4386 29.0173 23.1816C28.5564 23.1816 28.3511 23.3921 27.975 23.6553Z" fill="#4F3921"/>
<path d="M57.9897 24.645C58.8841 25.1559 59.6019 25.8346 60.3505 26.5346C61.5209 27.5318 62.993 28.5677 64.5687 28.5752C64.8205 28.5776 64.8205 28.5776 65.0774 28.5802C65.2576 28.5805 65.4378 28.5809 65.6234 28.5812C66.0094 28.5853 66.3954 28.5894 66.7813 28.5936C67.3863 28.5982 67.9913 28.6021 68.5963 28.6052C74.8689 28.6431 74.8689 28.6431 77.4403 31.0509C78.4729 32.1555 79.2218 33.5819 79.302 35.1068C79.292 35.2371 79.282 35.3675 79.2717 35.5019C79.4121 35.532 79.5525 35.5621 79.6972 35.5931C80.5386 35.9515 80.9885 36.5662 81.4399 37.3459C81.7761 38.7579 81.3773 40.0191 80.9637 41.3682C80.9044 41.5628 80.8451 41.7574 80.784 41.9578C79.8358 44.9867 78.4828 47.2886 75.7052 48.957C75.5576 49.0507 75.5576 49.0507 75.407 49.1463C73.5096 50.23 71.2452 50.3522 69.1177 50.3343C68.8684 50.3343 68.6191 50.3345 68.3698 50.335C67.8522 50.3352 67.3347 50.3332 66.8172 50.3295C66.16 50.3249 65.5029 50.3253 64.8456 50.3274C64.3325 50.3285 63.8195 50.3272 63.3064 50.3252C63.0642 50.3245 62.8221 50.3244 62.58 50.3251C59.5507 50.3294 56.8843 49.7063 54.6583 47.5347C54.4843 47.356 54.4843 47.356 54.3068 47.1738C54.2059 47.0781 54.1049 46.9824 54.001 46.8837C52.5178 45.3706 51.823 43.2711 51.2267 41.2872C51.1776 41.1268 51.1285 40.9664 51.0779 40.8012C50.7267 39.5653 50.497 38.3011 50.9329 37.0622C51.4735 36.2793 51.9571 35.8296 52.8478 35.5019C52.8464 35.4016 52.8449 35.3012 52.8435 35.1978C52.8291 34.1485 52.8193 33.0992 52.8122 32.0497C52.809 31.6587 52.8045 31.2677 52.7989 30.8767C52.791 30.3129 52.7874 29.7492 52.7845 29.1853C52.7812 29.012 52.7778 28.8387 52.7744 28.6601C52.774 27.455 52.9316 26.3821 53.78 25.4704C54.9376 24.4023 56.4899 24.0782 57.9897 24.645ZM55.4416 27.7206C55.4416 30.235 55.4416 32.7493 55.4416 35.3398C62.4496 35.3398 69.4576 35.3398 76.6779 35.3398C76.4477 33.9588 75.7926 33.0039 74.699 32.1324C73.7367 31.4804 72.7145 31.2683 71.566 31.2641C71.3901 31.2629 71.2141 31.2618 71.0329 31.2606C70.8441 31.2599 70.6553 31.2592 70.4608 31.2586C70.0578 31.2548 69.6549 31.2509 69.2519 31.2468C68.6191 31.2412 67.9864 31.2364 67.3535 31.2342C66.7411 31.2317 66.1288 31.2252 65.5164 31.218C65.3296 31.2183 65.1428 31.2186 64.9503 31.219C62.0011 31.1749 59.6903 29.542 57.5743 27.6098C57.211 27.2827 56.9585 27.0846 56.475 26.981C55.9879 27.0608 55.9879 27.0608 55.4416 27.7206ZM53.3342 38.2578C53.4734 40.9868 54.6572 43.9754 56.6378 45.8592C58.6403 47.4707 60.6284 47.712 63.1088 47.7146C63.3489 47.7156 63.5889 47.7167 63.8289 47.7178C64.3303 47.7198 64.8317 47.7204 65.3331 47.7202C65.9698 47.7201 66.6065 47.7246 67.2432 47.7302C67.7386 47.7338 68.234 47.7344 68.7295 47.7342C68.9639 47.7346 69.1984 47.736 69.4328 47.7386C71.9636 47.7634 74.1781 47.19 76.07 45.4412C77.7126 43.6735 78.8038 40.6702 78.9474 38.2578C78.5036 37.814 78.2602 37.8928 77.6386 37.8924C77.4286 37.8914 77.2186 37.8905 77.0022 37.8896C76.7681 37.8902 76.534 37.8909 76.2999 37.8916C76.0544 37.8911 75.8089 37.8906 75.5634 37.8899C74.8956 37.8884 74.2277 37.889 73.5599 37.89C72.8621 37.8908 72.1643 37.89 71.4665 37.8895C70.2944 37.8889 69.1224 37.8897 67.9504 37.8913C66.594 37.893 65.2376 37.8925 63.8812 37.8907C62.7182 37.8892 61.5551 37.889 60.3921 37.8898C59.6967 37.8903 59.0014 37.8904 58.3061 37.8893C57.6525 37.8884 56.999 37.8891 56.3454 37.8909C56.105 37.8914 55.8647 37.8912 55.6243 37.8905C55.2972 37.8896 54.9701 37.8909 54.6429 37.8924C54.4596 37.8925 54.2762 37.8926 54.0872 37.8927C53.6331 37.89 53.6331 37.89 53.3342 38.2578Z" fill="#4F3921"/>
<path d="M41.0039 -0.0508066C41.2128 -0.0555084 41.4216 -0.0602102 41.6368 -0.0650545C41.9376 -0.067092 41.9376 -0.067092 42.2444 -0.0691706C42.4281 -0.0715345 42.6118 -0.0738985 42.801 -0.0763341C43.3911 0.0168343 43.579 0.173729 43.932 0.64829C44.0189 1.25683 44.0419 1.61419 43.7021 2.1364C43.0662 2.58471 42.4535 2.5284 41.6929 2.53281C40.7014 2.54738 39.849 2.59685 38.9066 2.91782C38.7461 2.97132 38.5856 3.02481 38.4203 3.07993C38.0418 3.73729 37.9785 4.44592 38.0961 5.18735C38.3737 5.74253 38.5579 6.06797 39.1194 6.34491C39.57 6.48902 39.9449 6.52728 40.4163 6.54502C41.517 6.63242 42.3578 6.93248 43.1012 7.77097C43.6418 8.55008 43.8089 9.13404 43.8142 10.0804C43.8176 10.2709 43.8209 10.4613 43.8244 10.6576C43.8286 11.0561 43.8315 11.4546 43.8332 11.8532C43.8474 13.2731 43.8474 13.2731 44.5805 14.4276C45.0893 14.682 45.4783 14.6468 46.0394 14.5897C46.6561 14.1423 46.8948 13.7719 47.0127 13.0364C47.0463 12.7541 47.0764 12.4714 47.1033 12.1885C47.2876 10.3577 47.8691 9.01593 49.2816 7.7811C50.3042 7.15445 51.3279 6.62408 52.5442 6.62793C52.674 6.62795 52.8038 6.62796 52.9375 6.62797C53.1452 6.62923 53.1452 6.62923 53.3572 6.63051C53.5002 6.63073 53.6432 6.63096 53.7905 6.6312C54.2464 6.63211 54.7022 6.63414 55.1581 6.6362C55.4675 6.63702 55.777 6.63776 56.0864 6.63842C56.8442 6.64007 57.602 6.64324 58.3597 6.64634C58.3597 5.25544 58.3597 3.86454 58.3597 2.43149C58.0382 2.43404 57.7166 2.43659 57.3853 2.43921C56.3235 2.44705 55.2617 2.45264 54.1999 2.45669C53.5561 2.45923 52.9123 2.46268 52.2684 2.46818C51.6472 2.47346 51.026 2.47637 50.4048 2.47763C50.1677 2.47853 49.9305 2.48029 49.6934 2.48291C49.3615 2.48644 49.0298 2.48693 48.6979 2.4867C48.4144 2.48832 48.4144 2.48832 48.1252 2.48998C47.6605 2.43149 47.6605 2.43149 47.362 2.21907C47.0449 1.75665 47.0216 1.36321 47.0121 0.810399C47.2699 0.374763 47.2699 0.374763 47.6605 -0.00014744C48.1413 -0.101695 48.1413 -0.101695 48.7134 -0.101983C48.8715 -0.103708 48.8715 -0.103708 49.0329 -0.105468C49.386 -0.10832 49.7389 -0.105382 50.092 -0.102455C50.3452 -0.103288 50.5985 -0.104469 50.8518 -0.10597C51.5398 -0.108975 52.2277 -0.106871 52.9158 -0.103686C53.6364 -0.10103 54.357 -0.102458 55.0777 -0.103284C56.2888 -0.104017 57.4999 -0.101442 58.711 -0.0969144C60.109 -0.0917278 61.507 -0.0917172 62.905 -0.0945176C64.2513 -0.0970951 65.5976 -0.0959937 66.9439 -0.0932309C67.516 -0.0921199 68.088 -0.0922817 68.6601 -0.0934814C69.3351 -0.094729 70.0101 -0.0927401 70.6851 -0.0883183C70.932 -0.0872076 71.179 -0.087181 71.4259 -0.0883533C73.056 -0.0951965 74.5412 0.0209795 75.7998 1.18084C76.7877 2.37554 77.1502 3.609 77.0758 5.14429C76.9028 6.39066 76.3246 7.43208 75.3812 8.26743C74.3563 8.96644 73.4716 9.2597 72.229 9.26137C72.0539 9.26202 71.8787 9.26267 71.6981 9.26334C71.4123 9.26321 71.4123 9.26321 71.1206 9.26308C70.9186 9.26364 70.7166 9.26421 70.5085 9.26479C70.0699 9.26598 69.6314 9.2669 69.1928 9.26743C68.4985 9.26839 67.8042 9.27107 67.1098 9.27413C66.8718 9.27516 66.6337 9.27618 66.3956 9.27721C66.2168 9.27798 66.2168 9.27798 66.0344 9.27876C64.4187 9.28557 62.8031 9.29093 61.1875 9.29292C60.0966 9.29428 59.0056 9.29794 57.9147 9.30417C57.338 9.30736 56.7614 9.30938 56.1848 9.30857C55.541 9.30767 54.8974 9.31178 54.2536 9.31627C53.9692 9.31467 53.9692 9.31467 53.6791 9.31303C52.5704 9.32572 51.8455 9.45429 50.9027 10.0506C50.0753 10.9216 49.8934 11.6526 49.7983 12.8268C49.6528 14.2591 49.3402 15.4261 48.2583 16.4438C47.0918 17.3275 45.8653 17.5397 44.4183 17.3456C43.2515 16.987 42.2942 16.2904 41.6625 15.2381C41.1138 14.056 41.0948 12.8753 41.0748 11.5907C41.0666 11.2107 41.0578 10.8308 41.0482 10.4508C41.0454 10.2844 41.0425 10.118 41.0396 9.94647C41.0566 9.57132 41.0566 9.57132 40.8519 9.4022C40.4774 9.36208 40.1024 9.32559 39.7273 9.29075C38.2971 9.12417 37.2395 8.62146 36.2419 7.5582C35.3067 6.33951 35.1769 5.07798 35.3402 3.56626C35.6316 2.42416 36.1447 1.39731 37.1582 0.739477C38.4674 -0.0073771 39.5095 -0.0396266 41.0039 -0.0508066ZM60.9535 2.43149C60.9535 3.82239 60.9535 5.21329 60.9535 6.64634C62.4797 6.65734 64.0058 6.66625 65.532 6.67153C66.2407 6.67407 66.9494 6.67751 67.6581 6.68302C68.3424 6.68832 69.0266 6.69122 69.7109 6.69248C69.9716 6.69338 70.2323 6.69513 70.493 6.69776C70.859 6.7013 71.2248 6.70177 71.5907 6.70155C71.7988 6.70263 72.0069 6.70371 72.2213 6.70482C73.0664 6.61753 73.5844 6.35892 74.1451 5.72434C74.4893 5.02284 74.4948 4.66673 74.4086 3.89048C74.1212 3.2099 73.7743 2.90913 73.1117 2.5936C72.458 2.42598 71.8407 2.41188 71.1675 2.41309C71.0567 2.41307 70.9459 2.41304 70.8317 2.41302C70.4677 2.41313 70.1037 2.41439 69.7397 2.41566C69.4864 2.41596 69.2332 2.4162 68.9799 2.41636C68.315 2.41697 67.6501 2.41857 66.9852 2.42036C66.306 2.42202 65.6268 2.42276 64.9477 2.42358C63.6163 2.42531 62.2849 2.42816 60.9535 2.43149Z" fill="#4F3921"/>
<path d="M45.4617 19.8886C45.642 19.8845 45.642 19.8845 45.8258 19.8804C46.849 20.0408 47.381 20.808 47.9751 21.5806C49.1111 23.1672 50.1013 24.766 49.8589 26.7783C49.575 28.1232 48.7845 29.0565 47.6603 29.8279C46.4864 30.3701 45.4169 30.4892 44.175 30.1319C42.8969 29.6559 42.1105 28.952 41.4856 27.7446C41.0329 26.6759 41.0203 25.594 41.4293 24.5087C42.0762 23.0416 43.0066 20.9524 44.4068 20.0653C44.7782 19.9258 45.0656 19.8907 45.4617 19.8886ZM45.3908 22.8572C45.1806 23.1911 44.9714 23.5255 44.7626 23.8603C44.6739 24.0009 44.6739 24.0009 44.5834 24.1443C43.9571 25.1347 43.9571 25.1347 43.7798 26.2615C43.9777 26.8946 44.2156 27.1576 44.7424 27.5584C45.3767 27.7396 45.7139 27.791 46.3229 27.528C46.8844 27.0757 47.1324 26.8121 47.2652 26.0893C47.0769 24.7714 46.3428 23.7557 45.3908 22.8572Z" fill="#4F3921"/>
</g>
<defs>
<clipPath id="clip0_32_6305">
<rect width="83" height="83" fill="white"/>
</clipPath>
</defs>
</svg>
